<svg xmlns="http://www.w3.org/2000/svg" viewBox="118 779 490 490">
  <defs>
    <mask id="play-cutout" maskUnits="userSpaceOnUse" x="118" y="779" width="490" height="490">
      <rect fill="#fff" x="118" y="779" width="490" height="490"/>
      <path fill="#000" d="M325.313 994.993C326.801 981.929 336.596 976.517 349.086 979.619C352.926 980.572 356.56 982.804 360.027 984.716C370.487 991.23 381.187 997.313 391.856 1003.477C398.04 1007.048 405.138 1010.445 410.526 1015.162C412.862 1017.203 414.532 1019.265 415.271 1022.318C416.22 1026.24 415.537 1030.793 413.424 1034.235C409.981 1039.845 351.256 1074.495 344.678 1075.103C339.987 1075.538 335.373 1073.61 331.925 1070.498C326.556 1065.66 325.638 1060.365 325.449 1053.42C324.921 1033.965 325.824 1014.465 325.313 994.993Z"/>
    </mask>
  </defs>
  <path fill="#FD5852" d="M272.004 1000.15C263.288 978.005 248.672 963.689 226.135 956.23C217.065 953.228 206.764 950.291 198.6 945.479C182.353 935.814 170.651 920.048 166.105 901.698C161.244 882.58 164.293 862.31 174.564 845.468C193.664 814.265 234.464 802.45 266.499 822.234C291.134 837.448 297.524 857.455 302.045 884.591C305.028 902.499 317.872 917.444 333.071 927.042C314.969 929.376 298.575 938.915 287.602 953.5C275.892 968.95 274.294 981.626 272.004 1000.15Z"/>
  <path fill="#F79323" d="M397.048 928.278C409.778 919.722 416.296 914.154 423.858 900.439C431.796 886.042 431.2 871.777 436.229 857.309C446.96 825.956 479.304 807.448 511.772 814.082C530.061 817.786 545.156 828.56 555.33 844.114C565.932 860.411 569.551 880.28 565.379 899.268C558.434 932.066 538.155 947.963 507.384 955.493C481.448 961.839 467.586 980.731 458.346 1004.98C455.875 964.39 438.714 937.108 397.048 928.278Z"/>
  <g mask="url(#play-cutout)">
    <path fill="#5ACA31" d="M333.071 927.042C344.015 932.735 351.813 935.339 364.385 936.034C377.966 935.968 384.502 933.226 397.048 928.278C438.714 937.108 455.875 964.39 458.346 1004.98C453.557 1025.46 454.85 1036.61 461.358 1056.98C455.559 1083.93 451.635 1100.88 426.657 1117.54C414.613 1125.58 409.147 1124.61 398.186 1129.47C395.71 1128.36 393.207 1127.32 390.677 1126.34C369.344 1118.05 354.578 1120.52 334.199 1129.48C331.032 1127.41 320.227 1125.41 315.233 1123.09C296.671 1114.47 283.496 1100.63 276.151 1081.52C272.088 1070.94 273.887 1065 271.045 1054.9C270.814 1054.49 270.584 1054.09 270.353 1053.69C274.556 1040.17 275.748 1033.64 276.014 1019.6C275.574 1012.8 274.085 1006.6 272.004 1000.15C274.294 981.626 275.892 968.95 287.602 953.5C298.575 938.915 314.969 929.376 333.071 927.042Z"/>
    <path fill="#5ACA31" d="M333.071 927.042C344.015 932.735 351.813 935.339 364.385 936.034C364.769 944.131 366.721 964.735 362.702 970.954C358.08 968.405 353.235 965.429 348.115 964.158C331.461 960.023 318.401 967.239 316.417 984.657C316.254 996.135 318.217 1034.06 314.243 1040.56C302.764 1046.85 283.702 1026.23 276.014 1019.6C275.574 1012.8 274.085 1006.6 272.004 1000.15C274.294 981.626 275.892 968.95 287.602 953.5C298.575 938.915 314.969 929.376 333.071 927.042Z"/>
  </g>
  <path fill="#4C54E4" d="M270.353 1053.69C270.584 1054.09 270.814 1054.49 271.045 1054.9C273.887 1065 272.088 1070.94 276.151 1081.52C283.496 1100.63 296.671 1114.47 315.233 1123.09C320.227 1125.41 331.032 1127.41 334.199 1129.48C323.237 1136.02 319.125 1139.79 310.58 1149.53L309.078 1151.07C290.482 1185.84 299.213 1222.51 252.482 1238.68C236.306 1244.43 218.487 1243.36 203.115 1235.71C185.951 1227.26 172.932 1212.24 167.017 1194.04C156.487 1162.35 170.294 1123.13 200.252 1107.84C214.65 1100.49 229.311 1099.12 243.241 1088.54C257.247 1077.9 262.612 1069.06 270.353 1053.69Z"/>
  <path fill="#FDCA39" d="M461.358 1056.98C489.171 1114.52 531.672 1085.44 558.716 1137.11C567.745 1154.37 568.065 1176.61 561.754 1194.88C555.782 1212.23 543.048 1226.43 526.448 1234.24C510.452 1241.82 492.071 1242.62 475.478 1236.45C459.084 1230.34 445.831 1217.89 438.692 1201.92C434.839 1193.29 433.592 1185.28 431.598 1176.16C426.753 1154 416.424 1141.71 398.186 1129.47C409.147 1124.61 414.613 1125.58 426.657 1117.54C451.635 1100.88 455.559 1083.93 461.358 1056.98Z"/>
</svg>
